<?xml version="1.0" encoding="utf-8"?>
<svg class="thumbnail-icon" width="100%" viewBox="0 0 200 200" xmlns="http://www.w3.org/2000/svg">
  <g data-paper-data="{&quot;fillRule&quot;:&quot;evenodd&quot;,&quot;isIcon&quot;:&quot;true&quot;,&quot;iconType&quot;:&quot;icon&quot;,&quot;rawIconId&quot;:&quot;11061&quot;,&quot;selectedEffects&quot;:{&quot;container&quot;:&quot;&quot;,&quot;transformation&quot;:&quot;&quot;,&quot;pattern&quot;:&quot;&quot;},&quot;iconStyle&quot;:&quot;standalone&quot;,&quot;bounds&quot;:{&quot;x&quot;:79.96280199214783,&quot;y&quot;:172.47309967296735,&quot;width&quot;:119.12608092027881,&quot;height&quot;:125.0538006540653},&quot;relativeBoundsIconToContainer&quot;:{&quot;top&quot;:&quot;-0.0009494410529922157&quot;,&quot;left&quot;:&quot;0.00011554838137851363&quot;},&quot;widthRatioIconToContainer&quot;:&quot;0.8551214209168342&quot;,&quot;heightRatioIconToContainer&quot;:&quot;0.8976723055123288&quot;}" style="fill: rgb(0, 0, 0);">
    <path d="M158.5395,0.38c9.788,1.538 10.766,6.99 14.542,12.164c0,0 3.914,4.052 6.712,5.878c2.796,1.816 11.184,7.13 13.98,9.506c2.794,2.376 1.118,4.054 -0.7,3.636c-1.818,-0.42 -6.57,-0.84 -9.646,-1.26c-3.078,-0.418 -12.444,-3.634 -14.542,-4.334c-2.096,-0.7 -0.28,2.098 1.678,3.916c1.96,1.816 5.034,3.634 5.034,3.634c1.958,1.116 8.108,4.612 10.066,10.484c1.6336,4.8992 -0.7228,3.4722 -3.335,1.8902c-0.5186,-0.314 -1.0474,-0.6342 -1.557,-0.9122c-3.076,-1.678 -8.11,-5.172 -11.604,-7.41c-2.3228,-1.4856 -3.0406,-1.367 -4.286,-1.1612c-0.6292,0.104 -1.3928,0.2302 -2.566,0.1832c-3.496,-0.14 -5.592,1.118 -7.69,3.216c-2.098,2.098 -4.612,15.796 -5.312,21.67c-0.7,5.872 2.934,20.972 4.892,28.102c0.3284,1.1956 0.6962,2.407 1.0734,3.6502c1.8722,6.1682 3.981,13.1162 2.7026,22.7738c-1.536,11.604 -8.108,16.498 -16.636,22.648c-8.53,6.152 -8.808,11.604 -13.842,15.1c-5.034,3.494 -10.484,6.852 -13.002,9.368c-2.162,2.162 -1.332,5.5644 -0.6116,8.5182c0.118,0.4838 0.233,0.9556 0.3316,1.4078c0.7,3.218 1.818,5.174 3.076,7.69c1.258,2.518 1.398,6.292 2.656,7.272c1.258,0.978 7.15,1.384 11.848,1.414c0.5668,0.0036 1.202,-0.0128 1.8508,-0.0296c2.6366,-0.0682 5.501,-0.1422 4.9392,1.0936c-0.378,0.8328 -2.4904,0.9384 -3.5936,0.9936c-0.934,0.0468 -1.1442,0.0572 1.0356,0.4424c4.754,0.838 10.346,0.838 13.56,2.236c3.218,1.4 0.978,2.098 -2.236,1.958c-3.214,-0.138 -9.508,0.7 -7.968,2.518c1.536,1.816 -1.958,1.256 -4.614,0.558c-1.1844,-0.3112 -1.8128,-0.261 -2.617,-0.1966c-0.9988,0.08 -2.2688,0.1816 -5.213,-0.3614c-5.314,-0.98 -13.562,-0.98 -14.122,0.558c-0.558,1.536 -3.214,0.558 -4.334,-1.12c-0.881,-1.3248 -0.457,-2.5622 0.173,-4.4004c0.168,-0.4902 0.3506,-1.023 0.527,-1.6116c0.5654,-1.8818 0.3698,-2.8132 0.096,-4.1166c-0.133,-0.6334 -0.2844,-1.3546 -0.376,-2.3154c-0.28,-2.936 -0.56,-6.988 -1.958,-9.646c-1.398,-2.656 -2.376,-6.152 -2.796,-8.948c-0.3142,-2.1006 -0.7098,-1.99 -2.431,-1.5092c-0.5684,0.1588 -1.281,0.358 -2.183,0.5312c-3.634,0.698 -8.388,2.096 -12.652,3.634c-2.5564,0.9222 -3.8814,0.2864 -5.3766,-0.431c-0.9986,-0.4792 -2.0732,-0.9948 -3.6414,-1.107c-3.914,-0.28 -9.786,-0.14 -15.098,-1.258c-2.7648,-0.5818 -4.4318,-1.3154 -5.592,-1.826c-1.069,-0.4704 -1.7076,-0.7514 -2.378,-0.55c-1.398,0.42 -1.258,1.258 -1.678,3.634c-0.42,2.378 -0.28,9.926 -0.14,13.282c0.0786,1.8846 -0.5038,2.7108 -0.881,3.2462c-0.2948,0.4182 -0.4644,0.659 -0.097,1.0878c0.838,0.978 4.892,2.656 7.968,3.496c1.8654,0.5082 3.3712,0.2456 4.8286,-0.0086c0.9458,-0.165 1.8712,-0.3264 2.8614,-0.2714c2.518,0.138 2.378,1.118 0.56,1.678c-1.818,0.56 -0.14,1.258 1.678,1.958c1.818,0.7 4.194,0.002 7.41,0.7c3.216,0.698 5.732,2.656 2.936,2.794c-2.794,0.142 -8.528,1.12 -10.624,2.518c-0.4542,0.3022 -0.7772,0.5588 -1.0374,0.7652c-0.4528,0.3596 -0.7146,0.5674 -1.145,0.6008h-0.2668c-0.4508,-0.03 -1.0884,-0.2006 -2.1648,-0.528c-3.214,-0.98 -7.548,-0.838 -11.184,-1.538c-3.634,-0.698 -6.708,-2.656 -7.968,-5.732c-1.26,-3.076 -0.42,-1.818 -2.238,-3.634c-1.818,-1.818 -1.956,-4.194 -1.258,-7.13c0.698,-2.936 0.698,-5.312 2.376,-9.088c1.5242,-3.4282 1.2018,-6.5098 1.025,-8.2c-0.0178,-0.1704 -0.0342,-0.3268 -0.047,-0.468c-0.14,-1.538 -6.012,-2.236 -10.626,-4.334c-4.614,-2.098 -6.012,-5.592 -7.27,-10.206c-1.258,-4.616 -0.978,-5.454 -4.054,-9.088c-3.074,-3.634 -5.172,-7.27 -6.85,-9.088c-1.678,-1.818 -6.712,-4.472 -9.228,-6.292c-2.516,-1.82 -3.634,-6.85 -2.516,-5.454c1.118,1.398 4.334,1.54 3.076,0c-1.26,-1.538 -2.796,-5.172 -1.818,-4.334c0.978,0.84 3.634,1.54 2.096,0c-1.538,-1.536 -1.956,-4.192 -0.978,-3.13c0.98,1.062 2.516,0.474 1.398,-0.924c-1.12,-1.396 -0.978,-4.194 0.838,-2.236c1.816,1.958 3.494,1.958 2.376,-0.14c-1.12,-2.096 -1.818,-6.01 0,-4.332c1.818,1.678 3.636,2.936 3.076,1.118c-0.56,-1.818 -0.28,-4.056 0.978,-1.538c1.26,2.514 7.272,6.57 9.368,7.548c1.6296,0.7596 5.1152,0.5082 9.0142,0.2268c1.1206,-0.081 2.2752,-0.1642 3.4298,-0.2268c5.172,-0.28 4.474,-1.258 7.13,-3.286c2.656,-2.028 8.388,-6.362 13.282,-9.228c4.894,-2.866 8.108,-4.964 14.26,-8.318c6.152,-3.356 13.144,-7.55 20.832,-7.83c7.688,-0.28 9.926,-1.678 16.636,-3.356c6.71,-1.678 7.688,-4.894 8.808,-7.69c1.12,-2.796 5.034,-18.734 7.27,-27.682c2.236,-8.948 3.356,-23.91 4.194,-27.124c0.84,-3.216 7.83,-10.488 11.884,-12.444c0.857,-0.41354 1.6392,-0.89592 2.4322,-1.385c2.2938,-1.41473 4.6786,-2.88561 9.233,-2.909h0.2212c1.2644,0.00643 2.6934,0.12286 4.3296,0.38z" fill-rule="evenodd" style="fill: rgb(228, 0, 70);"/>
  </g>
</svg>