<svg xmlns:mydata="http://www.w3.org/2000/svg" mydata:contrastcolor="FFFFFF" mydata:template="Contrast" mydata:presentation="2.5" mydata:layouttype="undefined" mydata:specialfontid="undefined" mydata:id1="242" mydata:id2="019" mydata:companyname="Cinema Hub" mydata:companytagline="" version="1.1" xmlns="http://www.w3.org/2000/svg" xmlns:xlink="http://www.w3.org/1999/xlink" viewBox="0 0 550 470"><g fill="none" fill-rule="evenodd" stroke="none" stroke-width="1" stroke-linecap="butt" stroke-linejoin="miter" stroke-miterlimit="10" stroke-dasharray="" stroke-dashoffset="0" font-family="none" font-weight="none" font-size="none" text-anchor="none" style="mix-blend-mode: normal"><g data-paper-data="{&quot;isGlobalGroup&quot;:true}"><g data-paper-data="{&quot;stacked&quot;:true,&quot;isPrimaryText&quot;:true}"><path d="M210.29325,175.30283v38.33913h40.79407v-38.33913zM234.60893,201.64464c-0.77894,0.35951 -1.58783,0.53926 -2.42671,0.53926c-0.91076,0 -1.7556,-0.19773 -2.53454,-0.59319c-0.77894,-0.39546 -1.46799,-0.93472 -2.06718,-1.61779c-0.59918,-0.68307 -1.06654,-1.47998 -1.40208,-2.39073c-0.33554,-0.91076 -0.50331,-1.88143 -0.50331,-2.91202c0,-1.03059 0.16777,-2.00726 0.50331,-2.93c0.33554,-0.92274 0.8029,-1.71965 1.40208,-2.39073c0.59918,-0.67108 1.28824,-1.20435 2.06718,-1.59981c0.77894,-0.39546 1.62378,-0.59319 2.53454,-0.59319c1.89343,0 3.48727,0.79092 4.7815,2.37276l4.13435,-3.41533c-1.12646,-1.3901 -2.46264,-2.46264 -4.00852,-3.2176c-1.54589,-0.75497 -3.18165,-1.13245 -4.90733,-1.13245c-1.60581,0 -3.13971,0.32955 -4.60171,0.98865c-1.462,0.6591 -2.75623,1.62378 -3.8827,2.89405c-1.10249,1.22233 -1.94734,2.60045 -2.53454,4.13435c-0.5872,1.5339 -0.8808,3.16368 -0.8808,4.88932c0,1.70168 0.2936,3.31947 0.8808,4.85337c0.5872,1.5339 1.43204,2.91202 2.53454,4.13435c1.12646,1.27026 2.42069,2.23495 3.8827,2.89405c1.462,0.6591 2.99591,0.98865 4.60171,0.98865c1.62979,0 3.1697,-0.32955 4.61972,-0.98865c1.45002,-0.6591 2.75024,-1.62378 3.90067,-2.89405l-3.99055,-3.59509c-0.62315,0.69505 -1.32419,1.22233 -2.10313,1.58184z" data-paper-data="{&quot;glyphName&quot;:&quot;C&quot;,&quot;glyphIndex&quot;:0,&quot;firstGlyphOfWord&quot;:true,&quot;word&quot;:1,&quot;line&quot;:1,&quot;firstGlyphOfFirstLine&quot;:true}" fill="#5473e4" id="path-id-70686" data-original-fill="#e40046"></path><path d="M254.08322,175.30283v38.33913h40.79407v-38.33913zM277.17658,207.54058v-25.84869h-5.39263v25.84869z" data-paper-data="{&quot;glyphName&quot;:&quot;I&quot;,&quot;glyphIndex&quot;:1,&quot;word&quot;:1,&quot;line&quot;:1}" fill="#5473e4" id="path-id-25493" data-original-fill="#e40046"></path><path d="M297.8732,175.30283v38.33913h40.79407v-38.33913zM327.97697,181.72785h-5.39263v11.03692l-8.52036,-11.07287l-0.10785,-0.1438h-5.39263v25.99249h5.42858l-0.03595,-17.14857l8.62821,11.25263v5.89595h5.39263z" data-paper-data="{&quot;glyphName&quot;:&quot;N&quot;,&quot;glyphIndex&quot;:2,&quot;word&quot;:1,&quot;line&quot;:1}" fill="#5473e4" id="path-id-30620" data-original-fill="#e40046"></path><path d="M341.66318,175.30283v38.33913h40.79407v-38.33913zM361.88046,187.04858h9.88649v-5.39263h-17.83164v5.39263l6.32736,6.2914h-7.90919v14.2006h19.41348v-5.39263h-14.02085v-3.41533h10.78527v-5.39263z" data-paper-data="{&quot;glyphName&quot;:&quot;E&quot;,&quot;glyphIndex&quot;:3,&quot;word&quot;:1,&quot;line&quot;:1}" fill="#5473e4" id="path-id-92358" data-original-fill="#e40046"></path><path d="M385.45315,175.30283v38.33913h40.79407v-38.33913zM418.6487,181.6919h-5.39263l-7.40588,9.63484l-7.40588,-9.63484h-5.39263v25.77678h5.39263v-16.96882l6.0757,7.9811h2.69632v-0.03595l6.03975,-7.87324v16.93287h5.39263z" data-paper-data="{&quot;glyphName&quot;:&quot;M&quot;,&quot;glyphIndex&quot;:4,&quot;word&quot;:1,&quot;line&quot;:1}" fill="#5473e4" id="path-id-75329" data-original-fill="#e40046"></path><path d="M429.24313,175.30283v38.33913h40.79407v-38.33913zM459.3469,207.54058v-17.61593h-0.03595c-0.02397,-1.15043 -0.2936,-2.25292 -0.80889,-3.30748c-0.5153,-1.05456 -1.24031,-1.9773 -2.17503,-2.76822c-0.91076,-0.76695 -1.94135,-1.35415 -3.09178,-1.76159c-1.15043,-0.40744 -2.34879,-0.61117 -3.59509,-0.61117c-1.27026,0 -2.47462,0.20372 -3.61306,0.61117c-1.13844,0.40744 -2.16304,0.99464 -3.0738,1.76159c-0.93472,0.79092 -1.66572,1.71366 -2.193,2.76822c-0.52728,1.05456 -0.8029,2.15705 -0.82687,3.30748v17.61593h5.39263v-7.36993h8.62821v7.36993zM453.95427,189.92465v4.85337h-8.62821v-4.85337c0.02397,-0.43141 0.15579,-0.83286 0.39546,-1.20435c0.23967,-0.37149 0.55724,-0.69505 0.9527,-0.97067c0.39546,-0.27562 0.84485,-0.49133 1.34816,-0.64712c0.50331,-0.15579 1.04258,-0.23368 1.61779,-0.23368c0.57521,0 1.11448,0.07789 1.61779,0.23368c0.50331,0.15579 0.94671,0.37149 1.33018,0.64712c0.38348,0.27562 0.69505,0.59918 0.93472,0.97067c0.23967,0.37149 0.38348,0.77294 0.43141,1.20435z" data-paper-data="{&quot;glyphName&quot;:&quot;A&quot;,&quot;glyphIndex&quot;:5,&quot;lastGlyphOfWord&quot;:true,&quot;word&quot;:1,&quot;line&quot;:1,&quot;lastGlyphOfFirstLine&quot;:true}" fill="#5473e4" id="path-id-36770" data-original-fill="#e40046"></path><path d="M210.29325,217.1249v77.57227h82.53939v-77.57227zM271.20277,229.8338h-10.91101v23.85875h-17.45762v-23.85875h-10.91101v52.59108h10.91101v-17.82132h17.45762v17.82132h10.91101z" data-paper-data="{&quot;glyphName&quot;:&quot;H&quot;,&quot;glyphIndex&quot;:6,&quot;firstGlyphOfWord&quot;:true,&quot;word&quot;:2,&quot;line&quot;:2,&quot;firstGlyphOfSecondLine&quot;:true}" fill="#5473e4" id="path-id-96752" data-original-fill="#74d1ea"></path><path d="M298.89431,217.1249v77.57227h82.53939v-77.57227zM359.73109,265.18549h0.07274v-35.35168h-10.91101v35.35168c-0.04849,0.87288 -0.31521,1.68515 -0.80014,2.43679c-0.48493,0.75165 -1.12747,1.40631 -1.92761,1.96398c-0.80014,0.55767 -1.70939,1.00624 -2.72775,1.34569c-1.01836,0.33945 -2.10946,0.50918 -3.2733,0.50918c-1.16384,0 -2.25494,-0.16973 -3.2733,-0.50918c-1.01836,-0.33945 -1.92761,-0.78802 -2.72775,-1.34569c-0.80014,-0.55767 -1.44268,-1.21233 -1.92761,-1.96398c-0.48493,-0.75165 -0.75165,-1.56391 -0.80014,-2.43679v-35.64264h-10.91101v35.64264c0.09699,2.32768 0.66678,4.5705 1.70939,6.72846c1.04261,2.15796 2.50953,4.01283 4.40078,5.56462c1.84275,1.55179 3.91584,2.73988 6.21928,3.56426c2.30344,0.82439 4.74023,1.23658 7.31038,1.23658c2.57015,0 5.00694,-0.41219 7.31038,-1.23658c2.30344,-0.82439 4.37653,-2.01248 6.21928,-3.56426c1.89124,-1.55179 3.35817,-3.40666 4.40078,-5.56462c1.04261,-2.15796 1.58816,-4.40078 1.63665,-6.72846z" data-paper-data="{&quot;glyphName&quot;:&quot;U&quot;,&quot;glyphIndex&quot;:7,&quot;word&quot;:2,&quot;line&quot;:2}" fill="#5473e4" id="path-id-39594" data-original-fill="#74d1ea"></path><path d="M387.49538,217.1249v77.57227h82.54182v-77.57227zM449.56874,253.5107c0.77589,-1.96398 1.16384,-4.06132 1.16384,-6.29202c0,-2.37618 -0.44856,-4.60687 -1.34569,-6.69209c-0.89713,-2.08522 -2.10946,-3.91584 -3.637,-5.49188c-1.52754,-1.57604 -3.3218,-2.81262 -5.38277,-3.70974c-2.06097,-0.89713 -4.2553,-1.34569 -6.58298,-1.34569h-23.85875v10.91101l12.80226,12.72952h-15.93008v28.58686h26.47739c2.1822,0 4.2553,-0.31521 6.21928,-0.94562c1.96398,-0.63041 3.72187,-1.55179 5.27366,-2.76412c1.69727,-1.35782 3.03084,-2.9581 4.0007,-4.80085c0.96987,-1.84275 1.4548,-3.78248 1.4548,-5.81921c0,-1.69727 -0.32733,-3.3218 -0.98199,-4.87359c-0.65466,-1.55179 -1.61241,-2.9581 -2.87323,-4.21893c1.35782,-1.55179 2.42467,-3.30967 3.20056,-5.27366zM437.13019,252.52871l-11.63841,-11.63841h8.29237c0.82439,0 1.61241,0.16973 2.36405,0.50918c0.75165,0.33945 1.40631,0.78802 1.96398,1.34569c0.55767,0.55767 0.99411,1.22446 1.30932,2.00035c0.31521,0.77589 0.47281,1.60028 0.47281,2.47316c0,1.11535 -0.25459,2.13371 -0.76377,3.05508c-0.50918,0.92137 -1.17596,1.67302 -2.00035,2.25494zM437.67574,270.09544c-1.0911,0.80014 -2.55803,1.20021 -4.40078,1.20021h-15.56638v-6.76483h16.07556c1.69727,0.09699 3.04296,0.50918 4.03707,1.23658c0.99411,0.7274 1.49117,1.43056 1.49117,2.10946c0,0.67891 -0.54555,1.41843 -1.63665,2.21857z" data-paper-data="{&quot;glyphName&quot;:&quot;B&quot;,&quot;glyphIndex&quot;:8,&quot;lastGlyphOfWord&quot;:true,&quot;word&quot;:2,&quot;line&quot;:2,&quot;lastGlyphOfSecondLine&quot;:true}" fill="#5473e4" id="path-id-64934" data-original-fill="#74d1ea"></path></g><g data-paper-data="{&quot;fillRule&quot;:&quot;evenodd&quot;,&quot;isIcon&quot;:&quot;true&quot;,&quot;iconType&quot;:&quot;icon&quot;,&quot;rawIconId&quot;:&quot;11061&quot;,&quot;selectedEffects&quot;:{&quot;container&quot;:&quot;&quot;,&quot;transformation&quot;:&quot;&quot;,&quot;pattern&quot;:&quot;&quot;},&quot;iconStyle&quot;:&quot;standalone&quot;,&quot;bounds&quot;:{&quot;x&quot;:79.96280199214783,&quot;y&quot;:172.47309967296735,&quot;width&quot;:119.12608092027881,&quot;height&quot;:125.0538006540653},&quot;relativeBoundsIconToContainer&quot;:{&quot;top&quot;:&quot;-0.0009494410529922157&quot;,&quot;left&quot;:&quot;0.00011554838137851363&quot;},&quot;widthRatioIconToContainer&quot;:&quot;0.8551214209168342&quot;,&quot;heightRatioIconToContainer&quot;:&quot;0.8976723055123288&quot;}" fill="#e40046"><path d="M176.12878,172.7107c6.12013,0.96166 6.73165,4.37063 9.09266,7.60577c0,0 2.4473,2.53359 4.19681,3.67533c1.74825,1.13549 6.99301,4.45817 8.74126,5.94381c1.747,1.48564 0.69905,2.53484 -0.43769,2.27348c-1.13674,-0.26261 -4.10802,-0.52523 -6.03134,-0.78784c-1.92458,-0.26136 -7.78085,-2.27223 -9.09266,-2.70992c-1.31056,-0.43769 -0.17508,1.31181 1.0492,2.44855c1.22553,1.13549 3.1476,2.27223 3.1476,2.27223c1.22428,0.6978 5.06968,2.88374 6.29396,6.55532c1.02144,3.06332 -0.45194,2.17106 -2.08527,1.18188c-0.32426,-0.19633 -0.65491,-0.39655 -0.97354,-0.57037c-1.92333,-1.0492 -5.07093,-3.23389 -7.25562,-4.63324c-1.45237,-0.9289 -1.90119,-0.85474 -2.6799,-0.72606c-0.39342,0.06503 -0.87087,0.14394 -1.60444,0.11455c-2.18594,-0.08754 -3.4965,0.69905 -4.80832,2.01087c-1.31181,1.31181 -2.88374,9.87675 -3.32143,13.54958c-0.43769,3.67158 1.83454,13.11314 3.05882,17.57131c0.20534,0.74757 0.43531,1.50502 0.67116,2.28236c1.17063,3.85678 2.4892,8.20115 1.68985,14.23975c-0.96041,7.25562 -5.06968,10.31569 -10.40198,14.16109c-5.33354,3.84665 -5.50737,7.25562 -8.65497,9.44156c-3.1476,2.18469 -6.55532,4.28434 -8.12975,5.85752c-1.35183,1.35183 -0.83286,3.47925 -0.38241,5.32617c0.07378,0.30251 0.14569,0.59751 0.20734,0.88025c0.43769,2.01212 1.13674,3.23514 1.92333,4.80832c0.78659,1.57443 0.87413,3.93419 1.66071,4.54696c0.78659,0.61151 4.47067,0.86537 7.40819,0.88413c0.3544,0.00225 0.75157,-0.008 1.15725,-0.01851c1.64858,-0.04264 3.4396,-0.08891 3.08833,0.68379c-0.23635,0.52072 -1.55717,0.58675 -2.24697,0.62127c-0.584,0.02926 -0.71543,0.03577 0.64753,0.27662c2.97253,0.52398 6.46903,0.52398 8.47865,1.3981c2.01212,0.87538 0.61151,1.31181 -1.3981,1.22428c-2.00961,-0.08629 -5.94506,0.43769 -4.98214,1.57443c0.96041,1.13549 -1.22428,0.78534 -2.88499,0.3489c-0.74057,-0.19458 -1.13349,-0.1632 -1.63633,-0.12293c-0.62452,0.05002 -1.41861,0.11355 -3.25953,-0.22597c-3.32268,-0.61276 -8.4799,-0.61276 -8.83005,0.3489c-0.3489,0.96041 -2.00961,0.3489 -2.70992,-0.7003c-0.55086,-0.82836 -0.28575,-1.60206 0.10817,-2.75143c0.10505,-0.30651 0.21922,-0.63965 0.32952,-1.00768c0.35353,-1.17663 0.23122,-1.75901 0.06003,-2.57398c-0.08316,-0.39605 -0.17783,-0.84699 -0.2351,-1.44775c-0.17508,-1.83579 -0.35015,-4.36938 -1.22428,-6.03134c-0.87413,-1.66071 -1.48564,-3.84665 -1.74825,-5.59491c-0.19646,-1.31344 -0.44382,-1.24429 -1.52003,-0.94366c-0.3554,0.09929 -0.80097,0.22385 -1.36496,0.33214c-2.27223,0.43644 -5.24476,1.31056 -7.9109,2.27223c-1.59844,0.57662 -2.42692,0.17908 -3.36182,-0.26949c-0.62439,-0.29963 -1.29631,-0.62202 -2.27685,-0.69217c-2.4473,-0.17508 -6.11888,-0.08754 -9.44031,-0.78659c-1.72874,-0.36378 -2.77107,-0.82248 -3.4965,-1.14174c-0.66841,-0.29413 -1.06771,-0.46983 -1.48689,-0.3439c-0.87413,0.26261 -0.78659,0.78659 -1.0492,2.27223c-0.26261,1.48689 -0.17508,6.20642 -0.08754,8.30482c0.04915,1.17838 -0.31501,1.69498 -0.55086,2.02975c-0.18433,0.26149 -0.29037,0.41205 -0.06065,0.68017c0.52398,0.61151 3.05882,1.66071 4.98214,2.18594c1.16638,0.31776 2.10791,0.15357 3.01917,-0.00538c0.59138,-0.10317 1.17,-0.20409 1.78914,-0.1697c1.57443,0.08629 1.48689,0.69905 0.35015,1.0492c-1.13674,0.35015 -0.08754,0.78659 1.0492,1.22428c1.13674,0.43769 2.62238,0.00125 4.63324,0.43769c2.01087,0.43644 3.58404,1.66071 1.83579,1.747c-1.747,0.08879 -5.33229,0.7003 -6.64286,1.57443c-0.284,0.18896 -0.48596,0.3494 -0.64865,0.47846c-0.28312,0.22485 -0.44682,0.35478 -0.71593,0.37566h-0.16682c-0.28187,-0.01876 -0.68054,-0.12543 -1.35358,-0.33014c-2.00961,-0.61276 -4.71953,-0.52398 -6.99301,-0.96166c-2.27223,-0.43644 -4.1943,-1.66071 -4.98214,-3.58404c-0.78784,-1.92333 -0.26261,-1.13674 -1.39935,-2.27223c-1.13674,-1.13674 -1.22303,-2.62238 -0.78659,-4.45817c0.43644,-1.83579 0.43644,-3.32143 1.48564,-5.68244c0.95304,-2.14355 0.75145,-4.07038 0.6409,-5.12721c-0.01113,-0.10655 -0.02138,-0.20434 -0.02939,-0.29263c-0.08754,-0.96166 -3.75912,-1.3981 -6.64411,-2.70992c-2.88499,-1.31181 -3.75912,-3.4965 -4.54571,-6.3815c-0.78659,-2.88624 -0.61151,-3.41022 -2.53484,-5.68244c-1.92208,-2.27223 -3.23389,-4.54571 -4.28309,-5.68244c-1.0492,-1.13674 -4.19681,-2.7962 -5.76998,-3.93419c-1.57318,-1.13799 -2.27223,-4.28309 -1.57318,-3.41022c0.69905,0.87413 2.70992,0.96291 1.92333,0c-0.78784,-0.96166 -1.74825,-3.23389 -1.13674,-2.70992c0.61151,0.52523 2.27223,0.96291 1.31056,0c-0.96166,-0.96041 -1.22303,-2.62113 -0.61151,-1.95709c0.61276,0.66404 1.57318,0.29638 0.87413,-0.57775c-0.7003,-0.87288 -0.61151,-2.62238 0.52398,-1.3981c1.13549,1.22428 2.18469,1.22428 1.48564,-0.08754c-0.7003,-1.31056 -1.13674,-3.75787 0,-2.70867c1.13674,1.0492 2.27348,1.83579 1.92333,0.69905c-0.35015,-1.13674 -0.17508,-2.53609 0.61151,-0.96166c0.78784,1.57193 4.54696,4.10802 5.85752,4.71953c1.01894,0.47495 3.19838,0.31776 5.6363,0.14181c0.70068,-0.05065 1.42261,-0.10267 2.14455,-0.14181c3.23389,-0.17508 2.79745,-0.78659 4.45817,-2.05463c1.66071,-1.26805 5.24476,-3.97796 8.30482,-5.76998c3.06007,-1.79202 5.06968,-3.10384 8.91634,-5.20099c3.84665,-2.0984 8.21854,-4.72078 13.0256,-4.89586c4.80707,-0.17508 6.20642,-1.0492 10.40198,-2.0984c4.19556,-1.0492 4.80707,-3.06007 5.50737,-4.80832c0.7003,-1.74825 3.1476,-11.71379 4.54571,-17.3087c1.3981,-5.59491 2.0984,-14.95018 2.62238,-16.9598c0.52523,-2.01087 4.89586,-6.55782 7.4307,-7.78085c0.53586,-0.25857 1.02494,-0.56019 1.52078,-0.866c1.43424,-0.88459 2.92538,-1.80428 5.77311,-1.81891h0.13831c0.79059,0.00402 1.6841,0.07682 2.70716,0.2376z" data-paper-data="{&quot;isPathIcon&quot;:true}" id="path-id-19857" fill="#5473e4"></path></g></g></g><rect data-path-id="path-id-19857" class="invisible-bbox" x="80" y="172" fill="transparent" width="119" height="125"></rect><rect data-path-id="path-id-96752" class="invisible-bbox" x="210" y="217" fill="transparent" width="83" height="78"></rect><rect data-path-id="path-id-39594" class="invisible-bbox" x="299" y="217" fill="transparent" width="83" height="78"></rect><rect data-path-id="path-id-64934" class="invisible-bbox" x="387" y="217" fill="transparent" width="83" height="78"></rect><rect data-path-id="path-id-70686" class="invisible-bbox" x="210" y="175" fill="transparent" width="41" height="38"></rect><rect data-path-id="path-id-25493" class="invisible-bbox" x="254" y="175" fill="transparent" width="41" height="38"></rect><rect data-path-id="path-id-30620" class="invisible-bbox" x="298" y="175" fill="transparent" width="41" height="38"></rect><rect data-path-id="path-id-92358" class="invisible-bbox" x="342" y="175" fill="transparent" width="41" height="38"></rect><rect data-path-id="path-id-75329" class="invisible-bbox" x="385" y="175" fill="transparent" width="41" height="38"></rect><rect data-path-id="path-id-36770" class="invisible-bbox" x="429" y="175" fill="transparent" width="41" height="38"></rect></svg>