<svg width="191" height="108" viewBox="0 0 191 108" fill="none" xmlns="http://www.w3.org/2000/svg">
<path opacity="0.3" d="M21.0945 78.2489C3.80638 63.2455 1.37967 77.5412 0.228304 77.7535C0.228304 77.7535 -0.28538 81.2035 0.228304 93.783L168.752 190.934V122.569C149.586 88.2983 136.904 64.3601 124.434 75.418C102.823 94.5438 92.3018 107.389 66.5999 80.8497C51.3665 65.1209 41.8545 96.26 21.0945 78.2489Z" fill="url(#paint0_linear)"/>
<path opacity="0.3" d="M43.36 90.3153C26.0719 75.3119 23.6452 89.5899 22.4761 89.8199C22.4761 89.8199 21.9624 93.2699 22.4761 105.849L191 203V134.635C163.722 95.0746 145.743 102.435 130.155 108.149C114.886 113.74 109.289 102.063 89.9636 85.4144C74.0748 71.7202 64.12 108.326 43.36 90.3153Z" fill="url(#paint1_linear)"/>
<path d="M135.77 74.5334C135.77 73.118 134.938 71.508 133.928 70.9241C132.901 70.3402 132.086 70.9949 132.086 72.4103C132.086 73.8257 132.918 75.4357 133.928 76.0196C134.938 76.6211 135.77 75.9488 135.77 74.5334Z" fill="#F2994A"/>
<path d="M86.8992 84.0522C86.8992 82.6898 86.049 81.0975 84.9862 80.496C83.9234 79.8944 83.0731 80.496 83.0731 81.8583C83.0731 83.2206 83.9234 84.813 84.9862 85.4145C86.0312 86.0161 86.8992 85.4145 86.8992 84.0522Z" fill="#F2C94C"/>
<path opacity="0.07" d="M123.973 -16L156.672 2.8427V67.0318L123.973 48.189V-16Z" fill="white"/>
<path opacity="0.3" d="M150.295 8.36284L117.596 -10.4799L117.578 53.7092L131.714 61.8478L133.946 66.2356L136.16 64.4309L150.295 72.5519V8.36284Z" fill="url(#paint2_linear)"/>
<path opacity="0.1" d="M146.008 28.3732C146.008 30.4256 145.707 32.301 145.14 33.8756C144.574 35.4503 143.741 36.6888 142.696 37.538C141.651 38.3873 140.393 38.8119 139.029 38.8119C137.665 38.8119 136.177 38.3696 134.707 37.5026V21.8446L146.008 28.3732Z" fill="white"/>
<path opacity="0.3" d="M134.707 37.5203C132.723 36.3703 130.775 34.5303 129.057 32.1595C127.339 29.7886 125.904 26.9932 124.912 24.0385C123.92 21.0838 123.389 18.0761 123.389 15.3337C123.389 12.5913 123.92 10.1851 124.912 8.38049L134.707 21.8623V37.5203Z" fill="white"/>
<path d="M146.008 28.3732C146.008 24.9231 145.194 21.1015 143.67 17.4922C142.147 13.8829 140.021 10.6982 137.63 8.41586C135.221 6.13351 132.67 4.89502 130.368 4.89502C128.065 4.89502 126.152 6.11582 124.894 8.38048L134.69 21.8623L146.008 28.3732Z" fill="#F2994A"/>
<path opacity="0.15" d="M121.865 38.1926L141.793 49.6752V52.0814L121.865 40.5988V38.1926Z" fill="white"/>
<path opacity="0.15" d="M121.865 42.8989L146.026 56.8231V59.2293L121.865 45.3051V42.8989Z" fill="white"/>
<path opacity="0.15" d="M121.865 47.6052L137.524 56.6285V59.0347L121.865 50.0114V47.6052Z" fill="white"/>
<path opacity="0.07" d="M74.925 -6.41052L107.624 12.4322V76.6212L74.925 57.7785V-6.41052Z" fill="white"/>
<path opacity="0.3" d="M101.336 17.9876L68.6368 -0.855103L68.6191 63.3516L82.772 71.4903L84.9862 75.8604L87.2003 74.0557L101.336 82.1766V17.9876Z" fill="url(#paint3_linear)"/>
<path opacity="0.1" d="M97.0489 38.0158C97.0489 40.7581 96.5175 43.1643 95.5255 44.969C94.5336 46.7736 93.0988 47.9237 91.3806 48.3129L85.7301 31.4872L97.0489 38.0158Z" fill="white"/>
<path opacity="0.3" d="M91.3984 48.3129C89.2374 48.7906 86.7398 48.0299 84.2599 46.1721C81.7978 44.2967 79.4951 41.4128 77.7415 37.9627L85.7478 31.5049L91.3984 48.3129Z" fill="white"/>
<path d="M97.0488 38.0158C97.0488 35.4326 96.5883 32.6372 95.7203 29.8594C94.8347 27.0817 93.577 24.4101 92.036 22.0924C90.4949 19.7746 88.7059 17.8638 86.8637 16.5369C85.0038 15.2099 83.1439 14.5199 81.4257 14.5199C79.7076 14.5199 78.1842 15.1922 77.0151 16.5015C75.8284 17.8107 75.0313 19.7039 74.6593 22.0216C74.305 24.3393 74.3936 26.9932 74.925 29.771C75.4564 32.5487 76.4306 35.3442 77.7591 37.9273L85.7655 31.4695L97.0488 38.0158Z" fill="#F2C94C"/>
<path opacity="0.15" d="M72.9058 47.8352L95.5256 60.8747V63.2809L72.9058 50.2414V47.8352Z" fill="white"/>
<path opacity="0.15" d="M72.9058 52.5237L96.3935 66.0763V68.4825L72.9058 54.9299V52.5237Z" fill="white"/>
<path opacity="0.15" d="M72.9058 57.23L88.5643 66.2533V68.6595L72.9058 59.6362V57.23Z" fill="white"/>
<defs>
<linearGradient id="paint0_linear" x1="115.161" y1="37.0049" x2="93.7458" y2="105.128" gradientUnits="userSpaceOnUse">
<stop stop-color="white"/>
<stop offset="1" stop-color="white" stop-opacity="0"/>
</linearGradient>
<linearGradient id="paint1_linear" x1="124.451" y1="66.324" x2="112.289" y2="121.439" gradientUnits="userSpaceOnUse">
<stop stop-color="white"/>
<stop offset="1" stop-color="white" stop-opacity="0"/>
</linearGradient>
<linearGradient id="paint2_linear" x1="133.937" y1="0.26004" x2="133.937" y2="79.5859" gradientUnits="userSpaceOnUse">
<stop stop-color="white" stop-opacity="0"/>
<stop offset="1" stop-color="white"/>
</linearGradient>
<linearGradient id="paint3_linear" x1="84.9773" y1="9.40262" x2="84.9773" y2="91.0145" gradientUnits="userSpaceOnUse">
<stop stop-color="white" stop-opacity="0"/>
<stop offset="1" stop-color="white"/>
</linearGradient>
</defs>
</svg>
