<svg width="231" height="108" viewBox="0 0 231 108" fill="none" xmlns="http://www.w3.org/2000/svg">
<path opacity="0.1" d="M125.395 -48.152L252.001 142.618L125.427 69.4582L125.395 -48.152Z" fill="url(#paint0_linear)"/>
<path opacity="0.4" d="M246.27 155.937C247.575 156.702 248.148 155.141 247.13 153.611L113.235 -48.12C112.343 -49.4902 111.006 -49.522 111.006 -48.1837L111.038 76.1498C111.038 77.042 111.643 78.0935 112.407 78.5396L246.27 155.937ZM130.839 9.29902C130.839 7.96073 132.176 7.9926 133.067 9.36275L191.77 97.6899C192.789 99.2194 192.216 100.781 190.91 100.016L132.24 66.0808C131.476 65.6347 130.871 64.5832 130.871 63.691L130.839 9.29902Z" fill="url(#paint1_linear)"/>
<path opacity="0.3" d="M174.261 -43.9778L269 10.7965V60.2177L182.634 10.2548L174.293 12.9951L174.261 -43.9778Z" fill="url(#paint2_linear)"/>
<path opacity="0.15" d="M198.614 -9.18213L260.596 26.6649V30.9984L198.614 -4.84862V-9.18213Z" fill="white"/>
<path opacity="0.15" d="M198.614 -0.483276L247.098 27.5571V31.8906L198.614 3.85023V-0.483276Z" fill="white"/>
<path opacity="0.3" d="M94.7071 77.8066L0 23.0323V72.4535L86.3665 122.384L94.7389 134.78L94.7071 77.8066Z" fill="url(#paint3_linear)"/>
<path d="M75.4793 83.2236C75.4793 87.3022 77.8987 91.9862 80.8593 93.7069C83.8199 95.4275 86.2393 93.5157 86.2393 89.4371C86.2393 85.3585 83.8199 80.6745 80.8593 78.9538C77.8987 77.265 75.4793 79.1769 75.4793 83.2236Z" fill="#F2994A"/>
<path opacity="0.15" d="M70.3538 75.7674L49.5978 63.7546V68.0881L70.3538 80.1009V75.7674Z" fill="white"/>
<path opacity="0.15" d="M70.3856 84.4344L8.37236 48.5874V52.9209L70.3538 88.7679L70.3856 84.4344Z" fill="white"/>
<path opacity="0.15" d="M70.3856 93.1333L21.9019 65.0929V69.4264L70.3856 97.4668V93.1333Z" fill="white"/>
<path opacity="0.2" d="M61.0264 -50L100.596 -27.1216L100.628 58.6883L61.0264 35.8099V-50Z" fill="url(#paint4_linear)"/>
<path d="M48.6428 -26.4525L79.7767 -8.44933V1.84276L48.6428 -16.1604V-26.4525Z" fill="#F2994A"/>
<path opacity="0.15" d="M61.0264 23.0642L100.596 45.9426V58.6563L61.0264 35.778V23.0642Z" fill="white"/>
<path opacity="0.15" d="M82.7694 21.7578V26.0914L65.929 16.341V12.0074L82.7694 21.7578Z" fill="white"/>
<path opacity="0.2" d="M144.623 104.19L105.053 81.3118L105.085 167.122L144.655 190L144.623 104.19Z" fill="url(#paint5_linear)"/>
<path opacity="0.15" d="M111.038 97.5305L127.273 106.899V111.232L111.038 101.864V97.5305Z" fill="white"/>
<path opacity="0.15" d="M111.038 106.229L139.753 122.831V127.164L111.038 110.563V106.229Z" fill="white"/>
<path opacity="0.2" d="M225.387 49.607C227.297 50.6903 228.825 53.3669 228.825 55.5655V65.2841L235.256 68.9803C237.166 70.0637 238.694 72.7403 238.694 74.9389C238.694 77.1375 237.166 78.0297 235.256 76.9463L228.825 73.2501V82.9686C228.825 85.1673 227.297 86.0594 225.387 84.9761C223.477 83.8927 221.949 81.2161 221.949 79.0175V69.299L215.518 65.5709C213.608 64.4875 212.08 61.8109 212.08 59.5804C212.08 57.3818 213.608 56.4896 215.518 57.573L221.949 61.2692V51.5507C221.949 49.3839 223.477 48.4917 225.387 49.607Z" fill="url(#paint6_linear)"/>
<defs>
<linearGradient id="paint0_linear" x1="217.619" y1="-2.85755" x2="152.71" y2="109.394" gradientUnits="userSpaceOnUse">
<stop stop-color="white"/>
<stop offset="1" stop-color="white" stop-opacity="0"/>
</linearGradient>
<linearGradient id="paint1_linear" x1="210.69" y1="-0.844074" x2="144.958" y2="112.763" gradientUnits="userSpaceOnUse">
<stop stop-color="white"/>
<stop offset="0.8963" stop-color="white" stop-opacity="0"/>
</linearGradient>
<linearGradient id="paint2_linear" x1="214.973" y1="-42.3621" x2="227.18" y2="57.0584" gradientUnits="userSpaceOnUse">
<stop stop-color="white"/>
<stop offset="1" stop-color="white" stop-opacity="0"/>
</linearGradient>
<linearGradient id="paint3_linear" x1="74.0597" y1="58.002" x2="25.1084" y2="96.2751" gradientUnits="userSpaceOnUse">
<stop stop-color="white"/>
<stop offset="1" stop-color="white" stop-opacity="0"/>
</linearGradient>
<linearGradient id="paint4_linear" x1="99.375" y1="-27.8196" x2="65.123" y2="31.4156" gradientUnits="userSpaceOnUse">
<stop stop-color="white"/>
<stop offset="1" stop-color="white" stop-opacity="0"/>
</linearGradient>
<linearGradient id="paint5_linear" x1="143.423" y1="103.494" x2="109.17" y2="162.729" gradientUnits="userSpaceOnUse">
<stop stop-color="white"/>
<stop offset="1" stop-color="white" stop-opacity="0"/>
</linearGradient>
<linearGradient id="paint6_linear" x1="232.032" y1="62.0236" x2="215.352" y2="75.1747" gradientUnits="userSpaceOnUse">
<stop stop-color="white"/>
<stop offset="1" stop-color="white" stop-opacity="0"/>
</linearGradient>
</defs>
</svg>
