<svg width="293" height="108" viewBox="0 0 293 108" fill="none" xmlns="http://www.w3.org/2000/svg">
<path opacity="0.07" d="M257.523 1.48213C257.523 53.6255 227.054 78.253 189.49 56.5519C151.926 34.8509 121.495 -25.0456 121.495 -77.151C121.495 -129.294 151.964 -153.922 189.528 -132.221C227.092 -110.52 257.523 -50.6613 257.523 1.48213Z" fill="url(#paint0_linear)"/>
<path opacity="0.2" d="M105.749 -66.1674C105.749 -47.5067 109.733 -26.9458 117.208 -7.10699C124.682 12.7318 135.307 30.9744 147.714 45.3024C160.122 59.6305 173.819 69.3979 187.024 73.3884C200.228 77.379 212.332 75.4027 221.856 67.6876C231.38 59.9725 237.83 46.8987 240.486 30.1383C243.104 13.3399 241.776 -6.42289 236.616 -26.6418C231.456 -46.8606 222.766 -66.6614 211.573 -83.4978C200.38 -100.334 187.251 -113.484 173.781 -121.237V-26.8318L105.749 -66.1674Z" fill="url(#paint1_linear)"/>
<path opacity="0.3" d="M170.329 15.4302L283.249 80.7235L283.286 139.67L180.346 80.1534L170.405 83.4218L170.329 15.4302Z" fill="url(#paint2_linear)"/>
<path d="M250.389 91.0989V75.0986L293 99.7261V115.726L250.389 91.0989Z" fill="#F2994A"/>
<path opacity="0.15" d="M199.393 46.5945L224.132 60.8845V66.0532L199.393 51.7632V46.5945Z" fill="white"/>
<path opacity="0.15" d="M199.393 56.9321L244.053 82.7378V87.9065L199.393 62.1389V56.9321Z" fill="white"/>
<path opacity="0.15" d="M199.393 67.3075L257.181 100.714V105.883L199.393 72.4762V67.3075Z" fill="white"/>
<path d="M193.284 48.4568C193.284 53.3215 190.4 55.6018 186.872 53.5495C183.343 51.4972 180.459 45.9104 180.459 41.0457C180.459 36.1811 183.343 33.9007 186.872 35.953C190.4 38.0053 193.284 43.5921 193.284 48.4568Z" fill="#F2994A"/>
<path opacity="0.3" d="M90.9125 -13.7579L154.506 22.9933V141L90.9125 104.249V-13.7579Z" fill="url(#paint3_linear)"/>
<path opacity="0.15" d="M97.1732 56.2859L148.245 85.8161V90.9848L97.1732 61.4546V56.2859Z" fill="white"/>
<path opacity="0.15" d="M100.74 68.4476L144.641 93.8352V99.004L100.74 73.6164V68.4476Z" fill="white"/>
<path d="M119.294 89.5408L75.0522 63.9631V77.151L119.294 102.729V89.5408Z" fill="#F2C94C"/>
<path d="M129.957 32.6467C129.957 38.3475 126.656 41.0459 122.596 38.6896C118.536 36.3332 115.235 29.7583 115.235 24.0195C115.235 18.3187 118.536 15.6203 122.596 17.9766C126.656 20.371 129.957 26.9459 129.957 32.6467Z" fill="#F2C94C"/>
<path d="M122.596 43.2881C116.031 39.4495 110.605 43.06 109.657 51.3072C109.505 52.7514 110.567 54.6517 111.895 55.4118L133.296 67.9536C134.624 68.7137 135.686 68.1056 135.534 66.4714C134.586 57.046 129.16 47.1266 122.596 43.2881Z" fill="#F2C94C"/>
<path opacity="0.2" d="M55.5114 -23.4114L39.2715 -32.7987V-38.2715L55.5114 -28.8842C56.8394 -28.124 58.7745 -26.5658 60.4061 -24.1715C62.1894 -21.6251 63.4416 -18.3947 63.4416 -14.8982C63.4416 -11.0216 62.455 -8.8173 60.5958 -8.20921C58.8504 -7.63913 56.7635 -8.62727 55.5114 -9.34937L48.8333 -13.2259L48.7954 -13.2639C48.2262 -13.606 47.3156 -13.948 46.5946 -13.72C45.9875 -13.53 45.3425 -12.9599 45.3425 -10.7936C45.3425 -8.62728 46.0255 -7.33509 46.5567 -6.53697C47.2397 -5.54883 48.1503 -4.86474 48.7195 -4.5607L48.7954 -4.52269L69.209 7.29699V12.7698L48.9471 1.0261C47.5432 0.303997 45.5322 -1.25422 43.7868 -3.68657C41.8896 -6.38495 40.5996 -9.76743 40.5996 -13.53C40.5996 -17.2925 41.8896 -19.1928 43.7489 -19.7249C45.4943 -20.2189 47.5053 -19.4968 48.9092 -18.6607L55.5114 -14.8222C56.46 -14.2521 57.1809 -14.024 57.6741 -14.1761C58.0536 -14.2901 58.7366 -14.8222 58.7366 -17.5965C58.7366 -19.4208 58.1674 -20.599 57.5983 -21.3591C56.9153 -22.3852 56.0426 -23.1073 55.5114 -23.4114Z" fill="white"/>
<path d="M77.5186 14.67C77.5186 19.5727 74.6349 21.891 71.1061 19.8767C67.5774 17.8244 64.6937 12.1996 64.6937 7.25892C64.6937 2.35623 67.5774 0.0379039 71.1061 2.05219C74.6349 4.10448 77.5186 9.76728 77.5186 14.67Z" fill="#F2C94C"/>
<defs>
<linearGradient id="paint0_linear" x1="271.193" y1="-78.4267" x2="145.164" y2="-16.0096" gradientUnits="userSpaceOnUse">
<stop stop-color="white"/>
<stop offset="1" stop-color="white" stop-opacity="0"/>
</linearGradient>
<linearGradient id="paint1_linear" x1="223.072" y1="-60.318" x2="167.229" y2="-2.75446" gradientUnits="userSpaceOnUse">
<stop stop-color="white"/>
<stop offset="1" stop-color="white" stop-opacity="0"/>
</linearGradient>
<linearGradient id="paint2_linear" x1="218.843" y1="17.3508" x2="233.487" y2="135.933" gradientUnits="userSpaceOnUse">
<stop stop-color="white"/>
<stop offset="1" stop-color="white" stop-opacity="0"/>
</linearGradient>
<linearGradient id="paint3_linear" x1="161.317" y1="-3.35727" x2="104.731" y2="94.5176" gradientUnits="userSpaceOnUse">
<stop stop-color="white"/>
<stop offset="1" stop-color="white" stop-opacity="0"/>
</linearGradient>
</defs>
</svg>
