<svg xmlns="http://www.w3.org/2000/svg" fill="none" viewBox="0 0 865 372" height="372" width="865">
<path fill="url(#paint0_linear)" d="M492.609 -74.9991C481.998 -81.1167 474.383 -81.2416 469.764 -75.4985C465.02 -69.7554 462.773 -60.0172 462.773 -46.4085V27.2527C462.773 41.2359 461.525 52.8469 458.903 62.0858C456.281 71.6992 451.912 78.4411 445.92 82.4363C440.052 86.5563 432.063 87.5551 421.951 85.6824C412.089 83.9345 399.73 78.6908 384.999 70.201L378.008 66.081V8.02591L386.872 13.1447C397.483 19.2624 404.474 20.0115 407.969 15.6418C411.714 11.272 413.587 2.28284 413.587 -11.3258V-76.2476C413.587 -93.2271 415.21 -106.586 418.58 -116.324C421.826 -126.187 428.443 -132.43 438.305 -135.177C428.443 -149.285 421.826 -163.268 418.58 -176.876C415.335 -190.485 413.712 -205.717 413.712 -222.696V-287.618C413.712 -301.227 411.839 -312.463 408.094 -321.078C404.599 -329.568 397.483 -336.934 386.997 -343.051L378.133 -348.17V-406.225L385.124 -402.105C399.855 -393.615 412.214 -384.501 422.076 -374.888C432.188 -365.15 440.177 -354.912 446.045 -343.925C452.162 -332.938 456.531 -321.203 459.028 -308.593C461.649 -296.358 462.898 -283.248 462.898 -269.265V-195.604C462.898 -181.995 465.27 -169.51 469.889 -158.399C474.633 -147.287 482.248 -138.548 492.734 -132.555L492.609 -74.9991Z" opacity="0.4"></path>
<path fill="url(#paint1_linear)" d="M225.206 -288.367C235.818 -282.25 243.433 -282.125 248.052 -287.868C252.796 -293.611 255.043 -303.349 255.043 -316.958V-390.619C255.043 -404.602 256.291 -416.213 258.913 -425.452C261.534 -435.066 265.779 -441.808 271.646 -445.928C277.763 -449.923 285.753 -450.922 295.615 -449.174C305.727 -447.301 318.21 -442.057 332.941 -433.443L339.932 -429.323V-371.267L331.069 -376.386C320.458 -382.504 313.342 -383.378 309.597 -379.008C306.101 -374.514 304.353 -365.524 304.353 -351.791V-286.869C304.353 -270.014 302.731 -256.531 299.36 -246.792C296.114 -236.929 289.498 -230.687 279.636 -227.94C289.498 -213.832 296.114 -199.849 299.36 -186.24C302.606 -172.632 304.229 -157.4 304.229 -140.42V-75.4986C304.229 -61.89 305.976 -50.7784 309.472 -42.1638C313.217 -33.5492 320.333 -26.0582 330.944 -20.0654L339.807 -14.9465V43.1086L332.816 38.9885C318.086 30.4987 305.602 21.2598 295.49 11.6464C285.628 2.03299 277.638 -8.20465 271.521 -19.3163C265.654 -30.1782 261.409 -41.9141 258.913 -54.399C256.291 -66.6343 255.043 -79.7435 255.043 -93.7267V-167.388C255.043 -180.997 252.671 -193.482 248.052 -204.593C243.308 -215.705 235.693 -224.444 225.206 -230.437V-288.367Z" opacity="0.4"></path>
<path fill="url(#paint2_linear)" d="M528.687 -433.942L792.219 -281.75L792.094 350.114L528.562 198.047L528.687 -433.942Z" opacity="0.15"></path>
<path fill="url(#paint3_linear)" d="M563.018 -82.365L761.759 32.3718V208.035L563.018 93.2984V-82.365Z" opacity="0.2"></path>
<path fill="url(#paint4_linear)" d="M53.805 -240.425L865 227.761L864.875 860L53.6802 391.814L53.805 -240.425Z" opacity="0.15"></path>
<path fill="#F2994A" d="M0 -84.6127L209.602 36.3666V94.4217L0 -26.4327V-84.6127Z"></path>
<path fill="white" d="M108.483 74.9456L573.878 343.622V363.473L108.483 94.7966V74.9456Z" opacity="0.15"></path>
<path fill="white" d="M108.483 114.897L509.961 346.618V366.47L108.483 134.749V114.897Z" opacity="0.15"></path>
<path fill="white" d="M108.483 154.474L450.164 351.737V371.588L108.483 174.325V154.474Z" opacity="0.15"></path>
<path fill="url(#paint5_linear)" d="M32.3323 174.201L373.014 370.839V546.503L32.3323 349.739V174.201Z" opacity="0.2"></path>
<path fill="white" d="M66.6626 238.998L337.311 395.185V415.036L66.6626 258.849V238.998Z" opacity="0.15"></path>
<path fill="white" d="M66.6626 278.95L283.381 404.049V423.9L66.6626 298.676V278.95Z" opacity="0.15"></path>
<path fill="url(#paint6_linear)" d="M53.8046 -240.425L863.876 227.262V312.909L53.8046 -154.653V-240.425Z" opacity="0.2"></path>
<defs>
<linearGradient gradientUnits="userSpaceOnUse" y2="-69.282" x2="359.977" y1="-423.747" x1="564.468" id="paint0_linear">
<stop stop-color="white"></stop>
<stop stop-opacity="0" stop-color="white" offset="0.903"></stop>
</linearGradient>
<linearGradient gradientUnits="userSpaceOnUse" y2="-93.3577" x2="241.913" y1="-447.779" x1="446.427" id="paint1_linear">
<stop stop-color="white"></stop>
<stop stop-opacity="0" stop-color="white" offset="0.903"></stop>
</linearGradient>
<linearGradient gradientUnits="userSpaceOnUse" y2="157.718" x2="545.147" y1="-278.879" x1="797.175" id="paint2_linear">
<stop stop-color="white"></stop>
<stop stop-opacity="0" stop-color="white" offset="1"></stop>
</linearGradient>
<linearGradient gradientUnits="userSpaceOnUse" y2="118.218" x2="630.397" y1="-3.12406" x1="700.444" id="paint3_linear">
<stop stop-color="white"></stop>
<stop stop-opacity="0" stop-color="white" offset="1"></stop>
</linearGradient>
<linearGradient gradientUnits="userSpaceOnUse" y2="303.927" x2="462.709" y1="72.614" x1="596.204" id="paint4_linear">
<stop stop-color="white"></stop>
<stop stop-opacity="0" stop-color="white" offset="1"></stop>
</linearGradient>
<linearGradient gradientUnits="userSpaceOnUse" y2="415.755" x2="170.637" y1="294.412" x1="240.683" id="paint5_linear">
<stop stop-color="white"></stop>
<stop stop-opacity="0" stop-color="white" offset="1"></stop>
</linearGradient>
<linearGradient gradientUnits="userSpaceOnUse" y2="211.633" x2="562.436" y1="-309.434" x1="254.801" id="paint6_linear">
<stop stop-color="white"></stop>
<stop stop-opacity="0" stop-color="white" offset="1"></stop>
</linearGradient>
</defs>
</svg>
