<svg id="SvgjsSvg1014" width="288" height="288" xmlns="http://www.w3.org/2000/svg" version="1.1" xmlns:xlink="http://www.w3.org/1999/xlink" xmlns:svgjs="http://svgjs.com/svgjs"><defs id="SvgjsDefs1015"></defs><g id="SvgjsG1016" transform="matrix(1,0,0,1,0,0)"><svg xmlns="http://www.w3.org/2000/svg" enable-background="new 0 0 512.001 512.001" viewBox="0 0 512.001 512.001" width="288" height="288"><path fill="#fa9cb9" d="M34.148,342.934H209.25c13.83,0,25.043,11.212,25.043,25.043l0,0
	c0,13.83-11.212,25.043-25.043,25.043H60.66" class="colord46366 svgShape"></path><path fill="#e40046" d="M209.25,407.687H60.66c-8.099,0-14.666-6.566-14.666-14.666c0-8.1,6.568-14.666,14.666-14.666
	h148.589c5.721,0,10.376-4.655,10.376-10.376c0-5.721-4.655-10.378-10.376-10.378H34.148c-8.099,0-14.666-6.566-14.666-14.666
	c0-8.1,6.568-14.666,14.666-14.666H209.25c21.897,0,39.709,17.814,39.709,39.709C248.959,389.873,231.147,407.687,209.25,407.687z" class="color4c1b27 svgShape"></path><path fill="#fa9cb9" d="M18.955,234.413h106.817c13.83,0,25.043,11.212,25.043,25.043l0,0
	c0,13.83-11.212,25.043-25.043,25.043h-106.1" class="colord46366 svgShape"></path><path fill="#e40046" d="M125.772,299.165h-106.1c-8.099,0-14.666-6.566-14.666-14.666c0-8.1,6.568-14.666,14.666-14.666
	h106.1c5.721,0,10.376-4.655,10.376-10.376s-4.655-10.376-10.376-10.376H18.955c-8.099,0-14.666-6.566-14.666-14.666
	c0-8.1,6.568-14.666,14.666-14.666h106.817c21.897,0,39.709,17.814,39.709,39.709S147.669,299.165,125.772,299.165z" class="color4c1b27 svgShape"></path><path fill="#fa9cb9" d="M56.035,125.892H209.25c13.83,0,25.043,11.212,25.043,25.043l0,0
	c0,13.83-11.212,25.043-25.043,25.043H31.593" class="colord46366 svgShape"></path><path fill="#e40046" d="M209.25,190.645H31.593c-8.099,0-14.666-6.566-14.666-14.666s6.568-14.666,14.666-14.666H209.25
	c5.721,0,10.376-4.655,10.376-10.378c0-5.723-4.655-10.376-10.376-10.376H56.035c-8.099,0-14.666-6.566-14.666-14.666
	s6.568-14.666,14.666-14.666H209.25c21.897,0,39.709,17.814,39.709,39.709C248.959,172.831,231.147,190.645,209.25,190.645z" class="color4c1b27 svgShape"></path><path fill="#fa9cb9" d="M451.173,393.021h-64.947c-13.83,0-25.043-11.212-25.043-25.043l0,0
	c0-13.83,11.212-25.043,25.043-25.043h91.625" class="colord46366 svgShape"></path><path fill="#e40046" d="M451.173,407.687h-64.945c-21.897,0-39.709-17.814-39.709-39.709c0-21.897,17.814-39.71,39.709-39.71
	h91.625c8.099,0,14.666,6.566,14.666,14.666c0,8.1-6.568,14.666-14.666,14.666h-91.625c-5.721,0-10.376,4.655-10.376,10.376
	s4.655,10.378,10.376,10.378h64.945c8.099,0,14.666,6.566,14.666,14.666C465.839,401.121,459.272,407.687,451.173,407.687z" class="color4c1b27 svgShape"></path><path fill="#fa9cb9" d="M480.406,175.979h-94.18c-13.83,0-25.043-11.212-25.043-25.043l0,0
	c0-13.83,11.212-25.043,25.043-25.043h69.737" class="colord46366 svgShape"></path><path fill="#e40046" d="M480.407,190.645h-94.18c-21.897,0-39.709-17.814-39.709-39.71c0-21.895,17.814-39.709,39.709-39.709
	h69.737c8.099,0,14.666,6.566,14.666,14.666s-6.568,14.666-14.666,14.666h-69.737c-5.721,0-10.376,4.655-10.376,10.376
	c0,5.721,4.655,10.378,10.376,10.378h94.18c8.099,0,14.666,6.566,14.666,14.666S488.506,190.645,480.407,190.645z" class="color4c1b27 svgShape"></path><path fill="#fa9cb9" d="M492.327,284.5H302.75c-13.83,0-25.043-11.212-25.043-25.043l0,0
	c0-13.83,11.212-25.043,25.043-25.043h190.295" class="colord46366 svgShape"></path><path fill="#e40046" d="M492.328,299.165H302.75c-21.897,0-39.709-17.814-39.709-39.709s17.814-39.709,39.709-39.709
		h190.295c8.099,0,14.666,6.566,14.666,14.666c0,8.1-6.568,14.666-14.666,14.666H302.75c-5.721,0-10.376,4.655-10.376,10.376
		s4.655,10.376,10.376,10.376h189.578c8.099,0,14.666,6.566,14.666,14.666C506.994,292.599,500.427,299.165,492.328,299.165z" class="color4c1b27 svgShape"></path><path fill="#e40046" d="M256,512.001c-84.098,0-162.881-41.362-210.743-110.642c-11.431-16.53-20.895-34.41-28.127-53.139
		C9.427,328.298,4.259,307.432,1.769,286.21C0.595,276.249,0,266.084,0,256.001c0-7.684,0.339-15.385,1.009-22.89
		c1.882-21.2,6.395-42.061,13.414-62c6.528-18.587,15.251-36.465,25.926-53.129C87.732,44.102,168.348,0.001,256,0.001
		s168.266,44.102,215.646,117.973c10.679,16.671,19.402,34.549,25.934,53.145c7.015,19.93,11.528,40.791,13.412,61.997
		c0.669,7.499,1.009,15.2,1.009,22.885c0,10.083-0.595,20.25-1.769,30.215c-2.489,21.216-7.659,42.081-15.363,62.008
		c-7.23,18.724-16.695,36.604-28.128,53.139c-4.608,6.663-13.744,8.329-20.405,3.722c-6.663-4.607-8.329-13.742-3.722-20.405
		c10.118-14.634,18.494-30.457,24.896-47.029c6.815-17.63,11.388-36.086,13.591-54.859c1.041-8.838,1.568-17.849,1.568-26.791
		c0-6.817-0.301-13.643-0.892-20.283c-1.669-18.777-5.66-37.236-11.866-54.87c-5.783-16.466-13.506-32.291-22.957-47.045
		C404.998,68.39,333.612,29.333,256,29.333S107.002,68.39,65.044,133.81c-9.445,14.747-17.168,30.572-22.948,47.029
		c-6.208,17.642-10.2,36.1-11.868,54.872c-0.594,6.647-0.895,13.471-0.895,20.289c0,8.941,0.527,17.953,1.568,26.784
		c2.203,18.78,6.774,37.236,13.59,54.862c6.402,16.577,14.778,32.399,24.897,47.033c42.39,61.359,112.15,97.988,186.612,97.988
		c28.529,0,56.336-5.227,82.647-15.536c7.544-2.958,16.051,0.764,19.006,8.305c2.955,7.541-0.764,16.051-8.304,19.006
		C319.614,506.093,288.207,512.001,256,512.001z" class="color4c1b27 svgShape"></path></svg></g></svg>