<svg id="SvgjsSvg1001" width="288" height="288" xmlns="http://www.w3.org/2000/svg" version="1.1" xmlns:xlink="http://www.w3.org/1999/xlink" xmlns:svgjs="http://svgjs.com/svgjs"><defs id="SvgjsDefs1002"></defs><g id="SvgjsG1008" transform="matrix(1,0,0,1,0,0)"><svg xmlns="http://www.w3.org/2000/svg" width="288" height="288" viewBox="0 -27 512 512"><path d="m478 79.472656h-20.019531l.019531-35.789062c.011719-24.027344-19.523438-43.5859378-43.554688-43.5976565l-151.9375-.0859375c-.007812 0-.011718 0-.019531 0-8.648437 0-16.78125 3.367188-22.898437 9.484375l-226.828125 226.828125c-8.230469 8.230469-12.761719 19.171875-12.761719 30.8125s4.53125 22.582031 12.761719 30.8125l147.203125 147.203125c8.496094 8.496094 19.65625 12.742187 30.8125 12.742187 11.160156 0 22.320312-4.246093 30.816406-12.742187l142.8125-142.8125c3.90625-3.90625 3.90625-10.238281 0-14.140625-3.90625-3.90625-10.238281-3.90625-14.144531 0l-142.8125 142.8125c-9.191407 9.191406-24.148438 9.191406-33.339844 0l-147.203125-147.203125c-4.453125-4.453125-6.90625-10.375-6.90625-16.671875s2.453125-12.21875 6.90625-16.671875l226.824219-226.824219c2.339843-2.339844 5.449219-3.628906 8.757812-3.628906h.007813l151.9375.085938c13 .003906 23.574218 10.589843 23.566406 23.589843l-.046875 83.796875h-45.042969c-3.878906 0-7.390625-1.585937-9.929687-4.140625 4.183593-1.792969 8.105469-4.382812 11.515625-7.792969 14.371094-14.375 14.371094-37.757812 0-52.128906-14.375-14.375-37.757813-14.375-52.132813 0-14.371093 14.371094-14.371093 37.753906 0 52.128906 5.328125 5.328126 11.898438 8.675782 18.785157 10.054688 4.894531 12.777344 17.28125 21.878906 31.761718 21.878906h45.03125l-.027344 47.9375c0 3.308594-1.289062 6.414063-3.628906 8.75l-27.453125 27.457032c-3.90625 3.90625-3.90625 10.238281 0 14.144531 3.902344 3.902343 10.234375 3.902343 14.140625 0l27.457032-27.457031c6.109374-6.113282 9.480468-14.238282 9.484374-22.882813l.027344-47.949219h20.058594c18.746094 0 34-15.25 34-34 0-18.746094-15.253906-34-34-34zm-121.492188-1.921875c3.289063-3.289062 7.605469-4.929687 11.925782-4.929687 4.316406 0 8.632812 1.644531 11.921875 4.929687 1.039062 1.042969 1.898437 2.195313 2.609375 3.410157-10.976563 3.363281-19.601563 12.148437-22.753906 23.21875-1.324219-.738282-2.578126-1.65625-3.703126-2.78125-6.574218-6.578126-6.574218-17.273438 0-23.847657zm121.492188 49.921875h-20.046875l.015625-28h20.03125c7.71875 0 14 6.28125 14 14s-6.28125 14-14 14zm0 0" fill="#e40046" class="color000 svgShape"></path><path d="M161.414062 252.304688c1.230469 4.425781 5.25 7.320312 9.625 7.320312.890626 0 1.792969-.117188 2.6875-.367188l102.65625-28.574218c5.320313-1.480469 8.433594-6.996094 6.953126-12.316406-1.480469-5.316407-6.992188-8.429688-12.316407-6.949219l-102.65625 28.570312c-5.316406 1.484375-8.429687 6.996094-6.949219 12.316407zm0 0M206.601562 265.5c-5.570312 5.570312-8.636718 12.972656-8.636718 20.851562 0 7.875 3.066406 15.277344 8.636718 20.847657 5.75 5.746093 13.296876 8.621093 20.847657 8.621093s15.101562-2.875 20.851562-8.621093c11.496094-11.496094 11.496094-30.203125 0-41.699219-11.496093-11.496094-30.203125-11.496094-41.699219 0zm27.554688 27.554688c-3.699219 3.699218-9.714844 3.699218-13.414062 0-1.792969-1.789063-2.777344-4.171876-2.777344-6.707032 0-2.53125.988281-4.914062 2.777344-6.707031 1.851562-1.847656 4.28125-2.773437 6.707031-2.773437 2.429687 0 4.859375.925781 6.707031 2.773437 3.699219 3.699219 3.699219 9.71875 0 13.414063zm0 0M253.253906 205.960938c11.496094-11.5 11.496094-30.203126 0-41.699219-5.570312-5.570313-12.976562-8.636719-20.851562-8.636719s-15.28125 3.066406-20.847656 8.636719c-11.496094 11.496093-11.496094 30.199219 0 41.699219 5.75 5.746093 13.296874 8.621093 20.847656 8.621093 7.550781 0 15.101562-2.875 20.851562-8.621093zm-27.558594-27.558594c1.792969-1.792969 4.175782-2.777344 6.707032-2.777344 2.535156 0 4.917968.984375 6.707031 2.777344 3.699219 3.699218 3.699219 9.714844 0 13.414062-3.695313 3.699219-9.714844 3.699219-13.414063 0-3.695312-3.699218-3.695312-9.714844 0-13.414062zm0 0" fill="#e40046" class="color000 svgShape"></path><path d="M99.460938 231.640625c-3.90625-3.90625-10.238282-3.90625-14.144532 0l-28.414062 28.414063c-1.875 1.875-2.929688 4.417968-2.929688 7.070312s1.054688 5.195312 2.929688 7.070312l126.808594 126.808594c1.949218 1.949219 4.511718 2.925782 7.070312 2.925782s5.117188-.976563 7.070312-2.925782l189.59375-189.597656c3.90625-3.90625 3.90625-10.238281 0-14.144531l-126.804687-126.804688c-1.875-1.875-4.417969-2.929687-7.070313-2.929687-2.652343 0-5.195312 1.054687-7.070312 2.929687l-104.613281 104.613281c-3.90625 3.90625-3.90625 10.238282 0 14.144532 3.902343 3.902344 10.234375 3.902344 14.140625 0l97.542968-97.542969 112.664063 112.664063-175.453125 175.453124-112.664062-112.664062 21.34375-21.34375c3.902343-3.90625 3.90625-10.234375 0-14.140625zm0 0M385.621094 256.972656c-2.632813 0-5.210938 1.070313-7.070313 2.929688s-2.929687 4.441406-2.929687 7.070312 1.070312 5.210938 2.929687 7.070313 4.4375 2.929687 7.070313 2.929687c2.628906 0 5.207031-1.070312 7.070312-2.929687 1.859375-1.859375 2.929688-4.441407 2.929688-7.070313s-1.070313-5.210937-2.929688-7.070312c-1.863281-1.859375-4.441406-2.929688-7.070312-2.929688zm0 0" fill="#e40046" class="color000 svgShape"></path><path d="m127.738281 217.492188c1.871094-1.859376 2.933594-4.429688 2.933594-7.070313 0-2.628906-1.0625-5.199219-2.933594-7.070313-1.859375-1.859374-4.429687-2.929687-7.066406-2.929687-2.632813 0-5.210937 1.070313-7.070313 2.929687-1.863281 1.859376-2.929687 4.441407-2.929687 7.070313 0 2.640625 1.066406 5.210937 2.929687 7.070313 1.867188 1.871093 4.4375 2.929687 7.070313 2.929687 2.636719 0 5.207031-1.058594 7.066406-2.929687zm0 0" fill="#e40046" class="color000 svgShape"></path></svg></g></svg>